<?xml version="1.0" encoding="utf-8"?>
<!-- Generator: Adobe Illustrator 17.0.0, SVG Export Plug-In . SVG Version: 6.00 Build 0)  -->
<!DOCTYPE svg PUBLIC "-//W3C//DTD SVG 1.1//EN" "http://www.w3.org/Graphics/SVG/1.1/DTD/svg11.dtd">
<svg version="1.1" id="矩形_1_拷贝_1_" xmlns="http://www.w3.org/2000/svg" xmlns:xlink="http://www.w3.org/1999/xlink" x="0px"
	 y="0px" width="512px" height="512px" viewBox="0 0 512 512" enable-background="new 0 0 512 512" xml:space="preserve">
<g id="矩形_1_拷贝">
	<g>
		<path fill-rule="evenodd" clip-rule="evenodd" fill="#E35352" d="M145.364,108.644c6.117,10.278,19.397,13.644,29.662,7.52
			c10.265-6.125,13.627-19.421,7.51-29.699l-26.232-44.075c-6.117-10.278-19.397-13.644-29.662-7.52
			c-10.265,6.125-13.627,19.421-7.51,29.699L145.364,108.644z M253.506,94.633h5.272c10.493,0,19-8.507,19-19V19
			c0-10.493-8.507-19-19-19h-5.272c-10.493,0-19,8.507-19,19v56.633C234.506,86.126,243.013,94.633,253.506,94.633z
			 M171.876,255.435l-6.832,71.789h91.099V189.265C184.846,192.011,171.876,255.435,171.876,255.435z M472.814,410.652
			c-2.811-28.008-24.599-50.63-50.627-55.029l-8.9-100.948c-9.864-75.091-70.602-111.486-70.602-111.486
			c-91.278-58.012-173.088-0.671-173.088-0.671c-63.051,39.938-70.602,111.735-70.602,111.735l-8.922,102.732
			c-26.113,3.236-48.37,26.115-51.21,54.411l-9.862,99.391l453.983,1.195L472.814,410.652z M132.246,356.382l7.62-93.209
			c0,0,5.559-54.255,51.984-84.435c0,0,60.237-43.331,127.445,0.507c0,0,44.721,27.503,51.984,84.247l8.675,91.522L132.246,356.382z
			 M338.119,116.497c10.35,5.979,23.581,2.425,29.553-7.938l25.609-44.44c5.972-10.363,2.422-23.611-7.928-29.59
			s-23.581-2.425-29.553,7.938l-25.609,44.44C324.219,97.27,327.769,110.518,338.119,116.497z"/>
	</g>
</g>
</svg>
