<?xml version="1.0" encoding="utf-8"?>
<!-- Generator: Adobe Illustrator 17.0.0, SVG Export Plug-In . SVG Version: 6.00 Build 0)  -->
<!DOCTYPE svg PUBLIC "-//W3C//DTD SVG 1.1//EN" "http://www.w3.org/Graphics/SVG/1.1/DTD/svg11.dtd">
<svg version="1.1" id="形状_1_1_" xmlns="http://www.w3.org/2000/svg" xmlns:xlink="http://www.w3.org/1999/xlink" x="0px"
	 y="0px" width="512px" height="512px" viewBox="0 0 512 512" enable-background="new 0 0 512 512" xml:space="preserve">
<g id="形状_1">
	<g>
		<path fill-rule="evenodd" clip-rule="evenodd" fill="#EE9642" d="M512,236.507c-0.055-10.15-5.636-15.761-5.636-15.761
			L282.309,9.972c-22.288-15.74-42.57,0-42.57,0L6.722,219.625C0.285,224.852,0.009,234.986,0,236.298v0.144
			c0.718,24.343,23.526,29.15,23.526,29.15H39.21V510h433.546V265.592h16.804c14.931-4.347,19.045-14.575,19.045-14.575
			c2.436-5.318,3.347-10.01,3.396-14.019V236.507z M260.464,465.154c-21.345,0-38.649-17.317-38.649-38.679
			c0-21.362,17.304-38.679,38.649-38.679c21.346,0,38.649,17.317,38.649,38.679C299.113,447.837,281.809,465.154,260.464,465.154z
			 M281.189,341.721c0,0-2.96,18.159-21.285,16.925c0,0-15.132,1.49-20.165-16.925L220.694,167.23c0,0,1.332-15.52,15.684-17.116
			h49.292c0,0,13.756,3.07,14.564,16.817L281.189,341.721z"/>
	</g>
</g>
</svg>
