<?xml version="1.0" encoding="utf-8"?>
<!-- Generator: Adobe Illustrator 17.0.0, SVG Export Plug-In . SVG Version: 6.00 Build 0)  -->
<!DOCTYPE svg PUBLIC "-//W3C//DTD SVG 1.1//EN" "http://www.w3.org/Graphics/SVG/1.1/DTD/svg11.dtd">
<svg version="1.1" id="形状_1_1_" xmlns="http://www.w3.org/2000/svg" xmlns:xlink="http://www.w3.org/1999/xlink" x="0px"
	 y="0px" width="512px" height="512px" viewBox="0 0 512 512" enable-background="new 0 0 512 512" xml:space="preserve">
<g id="形状_1">
	<g>
		<path fill="#3AB7E9" d="M338.279,0.037h-158.18c-12.34,0.064-14.38,9.6-14.38,9.6l-50.33,153.607
			c-4.465,11.005,2.397,14.401,2.397,14.401l83.883,64.803c10.803,37.451,26.363,51.603,26.363,51.603
			c1.119,4.433,46.735,48.002,46.735,48.002c14.367,13.484,10.785,40.802,10.785,40.802c-7.797,46.862-51.528,39.602-51.528,39.602
			c-39.062-5.923-38.347-43.202-38.347-43.202H107c7.49,117.576,116.239,130.806,116.239,130.806
			c81.523,9.174,124.627-52.803,124.627-52.803c59.294-91.753,0-164.408,0-164.408c-7.063-9.805-43.14-44.402-43.14-44.402
			l97.065-70.803c4.114-3.452,1.198-10.801,1.198-10.801L353.857,9.638C351.402,1.246,343.451,0.091,339.956,0h-0.99
			C338.533,0.013,338.279,0.037,338.279,0.037z"/>
	</g>
</g>
</svg>
