<?xml version="1.0" encoding="utf-8"?>
<!-- Generator: Adobe Illustrator 17.0.0, SVG Export Plug-In . SVG Version: 6.00 Build 0)  -->
<!DOCTYPE svg PUBLIC "-//W3C//DTD SVG 1.1//EN" "http://www.w3.org/Graphics/SVG/1.1/DTD/svg11.dtd">
<svg version="1.1" id="圆角矩形_7_拷贝_4_1_" xmlns="http://www.w3.org/2000/svg" xmlns:xlink="http://www.w3.org/1999/xlink"
	 x="0px" y="0px" width="512px" height="512px" viewBox="0 0 512 512" enable-background="new 0 0 512 512" xml:space="preserve">
<g id="圆角矩形_7_拷贝_4">
	<g>
		<path fill="#36BC99" d="M163.979,224.897H14.383c-2.04,0-3.694,1.654-3.694,3.695v68.364c0,2.041,1.654,3.695,3.694,3.695h149.597
			c2.04,0,3.694-1.654,3.694-3.695v-68.364C167.673,226.552,166.019,224.897,163.979,224.897z M163.979,366.284H14.383
			c-2.04,0-3.694,1.654-3.694,3.695v68.326c0,2.041,1.654,3.695,3.694,3.695h149.597c2.04,0,3.694-1.654,3.694-3.695v-68.326
			C167.673,367.938,166.019,366.284,163.979,366.284z M157.304,74.764c-5.834-5.817-14.726-6.381-19.862-1.26l-65.875,65.681
			l-31.172-31.08c-5.222-5.207-14.266-4.633-20.198,1.283l-14.323,14.28c-5.932,5.916-6.508,14.932-1.286,20.139l56.736,56.569
			c3.974,3.963,10.159,4.568,15.503,2.028c1.699-0.573,3.267-1.506,4.586-2.821l91.24-90.971c5.136-5.12,4.569-13.987-1.264-19.803
			L157.304,74.764z M508.306,366.284H227.042c-2.04,0-3.694,1.654-3.694,3.695v68.326c0,2.041,1.654,3.695,3.694,3.695h281.264
			c2.04,0,3.694-1.654,3.694-3.695v-68.326C512,367.938,510.346,366.284,508.306,366.284z M508.306,78.469H227.042
			c-2.04,0-3.694,1.654-3.694,3.695v68.364c0,2.041,1.654,3.695,3.694,3.695h281.264c2.04,0,3.694-1.654,3.694-3.695V82.164
			C512,80.123,510.346,78.469,508.306,78.469z M508.306,224.897H227.042c-2.04,0-3.694,1.654-3.694,3.695v68.364
			c0,2.041,1.654,3.695,3.694,3.695h281.264c2.04,0,3.694-1.654,3.694-3.695v-68.364C512,226.552,510.346,224.897,508.306,224.897z"
			/>
	</g>
</g>
</svg>
