<?xml version="1.0" encoding="utf-8"?>
<!-- Generator: Adobe Illustrator 17.0.0, SVG Export Plug-In . SVG Version: 6.00 Build 0)  -->
<!DOCTYPE svg PUBLIC "-//W3C//DTD SVG 1.1//EN" "http://www.w3.org/Graphics/SVG/1.1/DTD/svg11.dtd">
<svg version="1.1" id="矩形_1_拷贝_4_1_" xmlns="http://www.w3.org/2000/svg" xmlns:xlink="http://www.w3.org/1999/xlink"
	 x="0px" y="0px" width="512px" height="512px" viewBox="0 0 512 512" enable-background="new 0 0 512 512" xml:space="preserve">
<g id="矩形_1_拷贝_4">
	<g>
		<path fill-rule="evenodd" clip-rule="evenodd" fill="#F39943" d="M350.698,101.777h0.102c-10.61-5.589-17.13-11.776-21.023-17.784
			h6.397c3.369,5.796,8.402,9.485,14.034,9.485c10.144,0,18.368-11.943,18.368-26.676s-8.223-26.676-18.368-26.676
			c-7.047,0-13.159,5.77-16.239,14.227H327.1c-1.726-2.893,11.85-16.599,11.85-16.599c9.516-12.479,7.11-20.155,7.11-20.155
			C345.892,4.572,331.84,1,331.84,1H181.345c-13.182,3.923-14.22,15.413-14.22,15.413c-2.105,12.592,9.48,23.712,9.48,23.712
			c7.375,6.171,10.665,13.042,10.665,13.042c0.155,0.395,0.271,0.79,0.41,1.186h-7.278c-3.08-8.458-9.193-14.227-16.239-14.227
			c-10.144,0-18.367,11.943-18.367,26.676s8.223,26.676,18.367,26.676c5.631,0,10.665-3.689,14.034-9.485h8.491
			c-2.315,3.483-10.792,10.247-16.171,14.357C81.872,129.318,19,207.023,19,297.996C19,416.187,125.109,512,256,512
			s237-95.813,237-214.003C493,210.209,434.452,134.781,350.698,101.777z M203.86,27.083h104.28c0,0,4.22,0.802,1.185,5.928
			c0,0-6.886,10.54-8.295,20.155h-88.875c0,0-1.315-12.918-9.48-21.341C202.675,31.826,201.015,27.884,203.86,27.083z
			 M375.685,303.332c0,13.096-10.611,23.712-23.7,23.712H284.44v13.042h67.545c13.089,0,23.7,10.616,23.7,23.712v2.371
			c0,13.096-10.611,23.712-23.7,23.712H284.44v42.682c0,13.096-10.611,23.712-23.7,23.712h-2.37c-13.089,0-23.7-10.616-23.7-23.712
			v-42.682h-65.175c-13.089,0-23.7-10.616-23.7-23.712v-2.371c0-13.096,10.611-23.712,23.7-23.712h65.175v-13.042h-65.175
			c-13.089,0-23.7-10.616-23.7-23.712v-2.371c0-13.096,10.611-23.712,23.7-23.712h44.465l-60.481-74.516
			c-8.251-10.166-6.422-25.329,4.086-33.866l1.903-1.546c10.508-8.538,25.716-7.218,33.967,2.948l67.291,82.906l66.412-82.323
			c8.227-10.199,23.391-11.523,33.869-2.958l1.897,1.551c10.478,8.565,12.302,23.776,4.075,33.975l-59.559,73.829h44.565
			c13.089,0,23.7,10.616,23.7,23.712V303.332z"/>
	</g>
</g>
</svg>
