<?xml version="1.0" encoding="utf-8"?>
<!-- Generator: Adobe Illustrator 16.0.0, SVG Export Plug-In . SVG Version: 6.00 Build 0)  -->
<!DOCTYPE svg PUBLIC "-//W3C//DTD SVG 1.1//EN" "http://www.w3.org/Graphics/SVG/1.1/DTD/svg11.dtd">
<svg version="1.1" id="图形" xmlns="http://www.w3.org/2000/svg" xmlns:xlink="http://www.w3.org/1999/xlink" x="0px" y="0px"
	 width="1000.637px" height="1000.678px" viewBox="15.167 -16.333 1000.637 1000.678"
	 enable-background="new 15.167 -16.333 1000.637 1000.678" xml:space="preserve">
<path fill-rule="evenodd" clip-rule="evenodd" fill="#A6CE58" d="M593.303,921.339H437.667H194.482V46.673h398.821v239.463h243.184
	v635.203H593.303z M259.308,105.344h-21.075v98.087h21.075V105.344z M358.836,105.344h-27.195l-4.104,22.042
	c-1.067,5.633-2.063,11.414-2.991,17.341l-2.295,15.208c-2.178-15.234-5.17-33.431-8.972-54.591h-26.639l-10.015,98.087h19.962
	l5.424-67.595l13.632,67.595h14.259l13.006-67.449l5.633,67.449h20.866L358.836,105.344z M449.879,148.473h-31.786v19.03h9.807
	c-0.232,10.629-3.872,15.944-10.918,15.944c-4.406,0-7.615-2.313-9.635-6.945c-2.013-4.625-3.024-11.863-3.024-21.71
	c0-10.58,0.891-18.231,2.68-22.961c1.782-4.723,4.809-7.088,9.075-7.088c2.504,0,4.474,0.724,5.912,2.169
	c1.438,1.445,2.991,3.732,4.66,6.868l20.101-8.744c-5.936-14.939-15.533-22.409-28.795-22.409c-11.823,0-20.809,4.348-26.949,13.04
	c-6.147,8.698-9.217,21.444-9.217,38.245c0,16.654,3.084,29.478,9.251,38.462c6.166,8.991,14.907,13.483,26.22,13.483
	c10.108,0,18.07-3.639,23.89-10.909c5.819-7.277,8.73-17.28,8.73-30.016V148.473z M792.33,406.257H236.89v472.708H792.33V406.257z
	 M731.528,788.39H299.443V492.753h432.085V788.39z M715.784,508.497H315.187v265.897h400.597V508.497z M370.291,546.983
	c16.907,0,30.613,13.703,30.613,30.613c0,16.905-13.706,30.613-30.613,30.613s-30.613-13.708-30.613-30.613
	C339.677,560.686,353.383,546.983,370.291,546.983z M467.378,632.699l47.232-85.717l48.981,83.968l29.737-50.731l96.214,173.185
	H339.677L437.64,578.47L467.378,632.699z M622.487,46.673l214,213.807h-214V46.673z"/>
</svg>
