<?xml version="1.0" encoding="utf-8"?>
<!-- Generator: Adobe Illustrator 16.0.0, SVG Export Plug-In . SVG Version: 6.00 Build 0)  -->
<!DOCTYPE svg PUBLIC "-//W3C//DTD SVG 1.1//EN" "http://www.w3.org/Graphics/SVG/1.1/DTD/svg11.dtd">
<svg version="1.1" id="图形" xmlns="http://www.w3.org/2000/svg" xmlns:xlink="http://www.w3.org/1999/xlink" x="0px" y="0px"
	 width="1000.637px" height="1000.678px" viewBox="15.167 -16.333 1000.637 1000.678"
	 enable-background="new 15.167 -16.333 1000.637 1000.678" xml:space="preserve">
<path fill-rule="evenodd" clip-rule="evenodd" fill="#A6CE58" d="M593.273,921.173H437.695h-243.09V46.839h398.668v239.373h243.092
	v634.961H593.273z M297.565,104.302h-18.991v67.334c0,7.399-1.223,9.509-3.96,11.57c-1.369,1.034-3.245,1.552-5.625,1.552
	c-2.7,0-8.547,0.227-7.935-12.017h-22.732c1.086,31.639,19.763,31.639,33.823,31.481c9.047-0.102,15.547-2.452,19.496-7.354
	c3.951-4.902,5.925-12.352,5.925-22.35V104.302z M371.625,116.989c-2.977-4.756-6.361-8.06-10.15-9.911
	c-3.791-1.85-9.255-2.775-16.402-2.775h-32.028v98.408h19.348v-36.553h13.396c5.792,0,10.051-0.433,12.77-1.296
	c2.717-0.866,5.526-2.621,8.425-5.264c2.896-2.643,5.137-6.271,6.725-10.886c1.586-4.614,2.382-9.347,2.382-14.202
	C376.09,127.588,374.603,121.748,371.625,116.989z M427.793,181.371c-2.678,2.69-5.724,4.036-9.138,4.036
	c-5.278,0-9.346-2.667-12.203-8.002c-2.857-5.335-4.286-13.049-4.286-23.143c0-10.478,1.32-18.538,3.957-24.186
	c2.64-5.648,6.541-8.473,11.701-8.473c7.857,0,12.521,5.961,13.989,17.881l18.098-2.885c-1.229-10.237-4.623-18.431-10.181-24.584
	c-5.553-6.151-12.859-9.228-21.906-9.228c-10.796,0-19.339,4.758-25.629,14.274c-6.293,9.516-9.438,22.108-9.438,37.778
	c0,14.563,2.949,26.435,8.845,35.615c5.897,9.18,14.146,13.769,24.75,13.769c8.976,0,15.793-3.253,21.317-12.245
	c0.259,5.806,0,10.492,0,10.492h12.241l0.001-52.389h-33.399v18.383h15.301C431.813,174.377,430.475,178.679,427.793,181.371z
	 M792.225,406.287H236.996v472.528h555.229V406.287z M731.445,788.275h-431.92V492.749h431.92V788.275z M715.707,508.487H315.262
	v265.799h400.444V508.487z M370.345,546.957c16.901,0,30.602,13.702,30.602,30.603c0,16.899-13.701,30.602-30.602,30.602
	s-30.601-13.702-30.601-30.602C339.744,560.659,353.444,546.957,370.345,546.957z M467.396,632.643l47.214-85.686l48.962,83.937
	l29.728-50.711L689.477,753.3H339.744l97.925-174.865L467.396,632.643z M344.12,148.279h-12.383v-26.098h12.324
	c4.326,0,7.549,1.179,9.674,3.533c2.125,2.354,3.183,5.527,3.183,9.516c0,3.414-0.95,6.44-2.855,9.083
	C352.157,146.957,348.842,148.279,344.12,148.279z M622.446,46.839l213.919,213.726H622.446V46.839z"/>
</svg>
