<?xml version="1.0" encoding="utf-8"?>
<!-- Generator: Adobe Illustrator 17.0.0, SVG Export Plug-In . SVG Version: 6.00 Build 0)  -->
<!DOCTYPE svg PUBLIC "-//W3C//DTD SVG 1.1//EN" "http://www.w3.org/Graphics/SVG/1.1/DTD/svg11.dtd">
<svg version="1.1" id="圆角矩形_10_拷贝_4_1_"
	 xmlns="http://www.w3.org/2000/svg" xmlns:xlink="http://www.w3.org/1999/xlink" x="0px" y="0px" width="512px" height="512px"
	 viewBox="0 0 512 512" enable-background="new 0 0 512 512" xml:space="preserve">
<g id="圆角矩形_10_拷贝_4">
	<g>
		<path fill="#36BC99" d="M80.89,378.81h22.65c7.506,0,13.59-6.085,13.59-13.59v-77.01h258.21v77.01
			c0,7.505,6.084,13.59,13.59,13.59h22.65c7.505,0,13.59-6.085,13.59-13.59v-113.25c0-7.505-6.085-13.59-13.59-13.59h-135.9v-90.6
			c0-7.505-6.085-13.59-13.59-13.59h-22.65c-7.505,0-13.59,6.085-13.59,13.59v90.6H80.89c-7.506,0-13.59,6.085-13.59,13.59v113.25
			C67.3,372.725,73.384,378.81,80.89,378.81z M178.096,129.66h145.338c3.648,0,6.606-8.924,6.606-19.932V49.932
			c0-11.008-2.958-19.932-6.606-19.932H178.096c-3.648,0-6.606,8.924-6.606,19.932v59.796
			C171.49,120.735,174.448,129.66,178.096,129.66z M173.943,383.339H28.606c-3.649,0-6.606,8.924-6.606,19.932v59.796
			C22,474.076,24.957,483,28.606,483h145.337c3.649,0,6.606-8.924,6.606-19.932v-59.796
			C180.55,392.264,177.592,383.339,173.943,383.339z M468.393,383.339H323.056c-3.649,0-6.606,8.924-6.606,19.932v59.796
			c0,11.008,2.958,19.932,6.606,19.932h145.337c3.649,0,6.606-8.924,6.606-19.932v-59.796
			C475,392.264,472.042,383.339,468.393,383.339z"/>
	</g>
</g>
</svg>
