<?xml version="1.0" encoding="utf-8"?>
<!-- Generator: Adobe Illustrator 16.0.0, SVG Export Plug-In . SVG Version: 6.00 Build 0)  -->
<!DOCTYPE svg PUBLIC "-//W3C//DTD SVG 1.1//EN" "http://www.w3.org/Graphics/SVG/1.1/DTD/svg11.dtd">
<svg version="1.1" id="图形" xmlns="http://www.w3.org/2000/svg" xmlns:xlink="http://www.w3.org/1999/xlink" x="0px" y="0px"
	 width="1000.637px" height="1000.678px" viewBox="15.167 -16.333 1000.637 1000.678"
	 enable-background="new 15.167 -16.333 1000.637 1000.678" xml:space="preserve">
<path fill-rule="evenodd" clip-rule="evenodd" fill="#E72E35" d="M593.213,920.839H437.754H194.85V47.173h398.364v239.191h242.907
	v634.476H593.213z M299.577,115.974c-3.015-4.814-6.444-8.157-10.283-10.03c-3.84-1.873-9.379-2.809-16.619-2.809h-34.197v99.583
	h24.844v-36.988h10.077c5.871,0,10.184-0.438,12.94-1.312c2.751-0.875,5.599-2.652,8.534-5.328
	c2.935-2.673,5.206-6.345,6.815-11.015c1.607-4.668,2.415-9.459,2.415-14.372C304.102,126.699,302.595,120.789,299.577,115.974z
	 M374.56,124.547c-3.978-7.416-8.477-12.84-13.499-16.269c-5.022-3.429-12.656-5.143-22.901-5.143h-25.128v99.583h28.322
	c12.214,0,21.797-4.778,28.748-14.336c6.95-9.556,10.426-21.459,10.426-35.71C380.527,141.339,378.536,131.965,374.56,124.547z
	 M452.357,145.156h-33.955v-22.323h33.3v-19.698h-58.566v99.583h25.267v-38.958h33.955V145.156z M792.013,406.345H237.208v472.168
	h554.805V406.345z M488.401,496.238H294.447v-19.221h193.954V496.238z M488.401,557.394H294.447v-19.221h193.954V557.394z
	 M488.401,620.298H294.447v-19.221h193.954V620.298z M488.401,681.454H294.447v-19.221h193.954V681.454z M488.401,744.359H294.447
	v-19.221h193.954V744.359z M488.401,805.515H294.447v-19.221h193.954V805.515z M738.27,496.238H540.821v-19.221H738.27V496.238z
	 M738.27,557.394H540.821v-19.221H738.27V557.394z M738.27,620.298H540.821v-19.221H738.27V620.298z M738.27,805.515H540.821
	V663.982H738.27V805.515z M339.917,183.968h-7.948v-62.523h8.129c4.051,0,7.522,1.035,10.409,3.102
	c2.892,2.067,5.308,5.666,7.255,10.797c1.945,5.133,2.919,10.714,2.919,16.742c0,8.562-1.706,16.015-5.117,22.361
	C352.155,180.796,346.938,183.968,339.917,183.968z M271.71,147.637h-9.051v-26.41h8.992c4.382,0,7.648,1.193,9.802,3.575
	c2.15,2.382,3.226,5.593,3.226,9.629c0,3.454-0.965,6.519-2.895,9.192C279.853,146.3,276.495,147.637,271.71,147.637z
	 M622.364,47.173l213.757,213.563H622.364V47.173z"/>
</svg>
