<?xml version="1.0" encoding="utf-8"?>
<!-- Generator: Adobe Illustrator 16.0.0, SVG Export Plug-In . SVG Version: 6.00 Build 0)  -->
<!DOCTYPE svg PUBLIC "-//W3C//DTD SVG 1.1//EN" "http://www.w3.org/Graphics/SVG/1.1/DTD/svg11.dtd">
<svg version="1.1" id="图形" xmlns="http://www.w3.org/2000/svg" xmlns:xlink="http://www.w3.org/1999/xlink" x="0px" y="0px"
	 width="1000.637px" height="1000.678px" viewBox="15.167 -16.333 1000.637 1000.678"
	 enable-background="new 15.167 -16.333 1000.637 1000.678" xml:space="preserve">
<g>
	<g>
		<path fill-rule="evenodd" clip-rule="evenodd" fill="#F29300" d="M593.307,46.648H194.464v874.716h642.041V286.125H593.307V46.648
			z M388.612,102.621h63.014v19.722h-19.449v79.981h-23.992v-79.981h-19.572V102.621z M314.131,102.621h35.641
			c7.548,0,13.322,0.937,17.327,2.812c4.001,1.875,7.577,5.222,10.72,10.042c3.145,4.822,4.718,10.738,4.718,17.751
			c0,4.919-0.842,9.715-2.516,14.389c-1.678,4.675-4.046,8.352-7.107,11.029c-3.061,2.678-6.027,4.456-8.897,5.333
			c-2.874,0.875-7.371,1.313-13.49,1.313h-14.151v37.034h-22.245V102.621z M238.208,102.621h35.641
			c7.548,0,13.322,0.937,17.327,2.812c4.003,1.875,7.579,5.222,10.722,10.042c3.147,4.822,4.719,10.738,4.719,17.751
			c0,4.919-0.842,9.715-2.518,14.389c-1.678,4.675-4.046,8.352-7.104,11.029c-3.062,2.678-6.031,4.456-8.901,5.333
			c-2.872,0.875-7.369,1.313-13.49,1.313h-14.149v37.034h-22.247V102.621z M792.345,406.253v472.735H236.875V406.253H792.345z
			 M622.492,46.648v213.819h214.014L622.492,46.648z M359.268,143.158c2.012-2.677,3.019-5.745,3.019-9.203
			c0-4.042-1.121-7.256-3.364-9.642c-2.245-2.385-5.649-3.58-10.219-3.58h-13.019v26.442h13.082
			C353.755,147.177,357.255,145.837,359.268,143.158z M283.347,143.158c2.014-2.677,3.019-5.745,3.019-9.203
			c0-4.042-1.121-7.256-3.364-9.642c-2.243-2.385-5.65-3.58-10.22-3.58h-13.02v26.442h13.083
			C277.834,147.177,281.333,145.837,283.347,143.158z M504.113,786.589v-157.38h157.383
			c-1.405-84.292-70.131-152.202-154.758-152.202c-85.509,0-154.825,69.317-154.825,154.826
			C351.913,716.459,419.822,785.185,504.113,786.589z M526.857,805.888c83.999-1.401,151.709-69.684,152.177-153.937H526.857
			V805.888z"/>
	</g>
</g>
</svg>
