<?xml version="1.0" encoding="utf-8"?>
<!-- Generator: Adobe Illustrator 16.0.0, SVG Export Plug-In . SVG Version: 6.00 Build 0)  -->
<!DOCTYPE svg PUBLIC "-//W3C//DTD SVG 1.1//EN" "http://www.w3.org/Graphics/SVG/1.1/DTD/svg11.dtd">
<svg version="1.1" id="图形" xmlns="http://www.w3.org/2000/svg" xmlns:xlink="http://www.w3.org/1999/xlink" x="0px" y="0px"
	 width="1000.637px" height="1000.678px" viewBox="15.167 -16.333 1000.637 1000.678"
	 enable-background="new 15.167 -16.333 1000.637 1000.678" xml:space="preserve">
<path fill-rule="evenodd" clip-rule="evenodd" fill="#C70026" d="M195.152,921.3V46.711h399.741v238.862h240.925V921.3H195.152z
	 M304.555,132.412c0-6.119-1.317-11.677-3.952-16.679c-2.632-5.004-5.953-8.437-9.963-10.308c-4.007-1.869-9.325-2.803-15.946-2.803
	h-35.904v99.488h19.269v-39.431h13.706l12.544,39.431h21.143l-15.081-43.986C299.826,152.928,304.555,144.357,304.555,132.412z
	 M359.471,102.621h-22.154l-26.182,99.488h16.777l5.123-20.48h26.407l5.032,20.48h20.564L359.471,102.621z M459.603,132.412
	c0-6.119-1.321-11.677-3.953-16.679c-2.629-5.004-5.953-8.437-9.959-10.308c-4.01-1.869-9.325-2.803-15.95-2.803h-35.903v99.488
	h19.266v-39.431h13.708l12.543,39.431h21.143l-15.077-43.986C454.872,152.928,459.603,144.357,459.603,132.412z M792.386,404.567
	H238.584v473.691h553.802V404.567z M394.17,496.019h275.232v16.863H394.17c-6.674,0-12.373,4.168-14.601,10.025l-0.952,6.086h274.91
	l-0.104,10.777l0.104,10.765h-274.91l0.952,6.086c2.228,5.857,7.927,10.023,14.601,10.023h275.232v16.864H394.17
	c-17.999,0-32.602-14.474-32.602-32.333v-22.823C361.568,510.494,376.171,496.019,394.17,496.019z M394.17,597.675h275.232v16.864
	H394.17c-6.674,0-12.373,4.152-14.601,10.01l-0.955,6.1h274.913l-0.104,3.157l0.104,18.371h-274.91l0.952,6.1
	c2.228,5.844,7.927,10.01,14.601,10.01h275.232v16.864H394.17c-17.999,0-32.602-14.474-32.602-32.333V629.99
	C361.568,612.15,376.171,597.675,394.17,597.675z M394.17,699.314h275.232v16.863H394.17c-6.674,0-12.373,4.171-14.601,10.014
	l-0.952,6.1h274.91l-0.104,18.367l0.104,3.161H378.614l0.955,6.1c2.228,5.858,7.927,10.011,14.601,10.011h275.232v16.863H394.17
	c-17.999,0-32.602-14.477-32.602-32.318V731.65C361.568,713.79,376.171,699.314,394.17,699.314z M433.182,144.711
	c-1.734,0.658-4.516,0.984-8.348,0.984h-11.73v-25.364h11.309c4.39,0,7.382,0.256,8.979,0.765c1.592,0.511,3.069,1.859,4.428,4.045
	c1.358,2.188,2.037,4.665,2.037,7.435c0,2.916-0.678,5.504-2.037,7.763C436.46,142.599,434.916,144.055,433.182,144.711z
	 M346.353,128.349l8.577,34.913h-17.305L346.353,128.349z M278.135,144.711c-1.735,0.658-4.518,0.984-8.347,0.984H258.06v-25.364
	h11.31c4.388,0,7.378,0.256,8.976,0.765c1.594,0.511,3.072,1.859,4.427,4.045c1.357,2.188,2.036,4.665,2.036,7.435
	c0,2.916-0.679,5.504-2.036,7.763C281.417,142.599,279.87,144.055,278.135,144.711z M622.782,46.711l213.036,211.187H622.782V46.711
	z"/>
</svg>
