<?xml version="1.0" encoding="utf-8"?>
<!-- Generator: Adobe Illustrator 17.0.0, SVG Export Plug-In . SVG Version: 6.00 Build 0)  -->
<!DOCTYPE svg PUBLIC "-//W3C//DTD SVG 1.1//EN" "http://www.w3.org/Graphics/SVG/1.1/DTD/svg11.dtd">
<svg version="1.1" id="矩形_1_拷贝_2_1_" xmlns="http://www.w3.org/2000/svg" xmlns:xlink="http://www.w3.org/1999/xlink"
	 x="0px" y="0px" width="512px" height="512px" viewBox="0 0 512 512" enable-background="new 0 0 512 512" xml:space="preserve">
<g id="矩形_1_拷贝_2">
	<g>
		<path fill-rule="evenodd" clip-rule="evenodd" fill="#2EB3E8" d="M416.965,152.306c0,0-3.06-89.941-83.548-132.506
			c0,0-70.028-44.687-154.843,0.211c0,0-76.971,37.839-82.434,132.884c0,0-3.505,45.758,26.735,99.335
			c0,0,27.874,54.137,31.191,66.763c0,0,7.57,20.967,6.684,39.906c0,0,4.42,21.291,28.964,25.017h133.677
			c23.726-2.248,28.963-25.61,28.963-25.61s-0.372-24.391,6.684-40.086c0,0,10.618-29.371,31.191-66.81
			C390.23,251.407,418.084,202.581,416.965,152.306z M272.148,351.622h-33.419V264.18c0-8.284,6.716-15,15-15h3.419
			c8.284,0,15,6.716,15,15V351.622z M307.795,220.204c0,8.008-6.492,14.5-14.5,14.5h-69.03c-8.008,0-14.5-6.492-14.5-14.5v-3.291
			c0-8.008,6.492-14.5,14.5-14.5h69.03c8.008,0,14.5,6.492,14.5,14.5V220.204z M307.795,167.87c0,8.008-6.492,14.5-14.5,14.5h-69.03
			c-8.008,0-14.5-6.492-14.5-14.5v-3.291c0-8.008,6.492-14.5,14.5-14.5h69.03c8.008,0,14.5,6.492,14.5,14.5V167.87z
			 M336.759,415.648c0-8.917-7.232-16.146-16.153-16.146H192.498c-8.921,0-16.153,7.229-16.153,16.146s7.232,16.146,16.153,16.146
			c-8.921,0-16.153,7.229-16.153,16.146c0,8.917,7.232,16.146,16.153,16.146c-8.921,0-16.153,7.229-16.153,16.146
			s7.232,16.146,16.153,16.146h32.454c9.766,14.889,29.372,15.589,29.372,15.589s22.586,1.24,33.809-15.589h32.473
			c8.921,0,16.153-7.229,16.153-16.146s-7.232-16.146-16.153-16.146c8.921,0,16.153-7.229,16.153-16.146
			c0-8.917-7.232-16.146-16.153-16.146C329.527,431.793,336.759,424.565,336.759,415.648z"/>
	</g>
</g>
</svg>
