<?xml version="1.0" encoding="utf-8"?>
<!-- Generator: Adobe Illustrator 17.0.0, SVG Export Plug-In . SVG Version: 6.00 Build 0)  -->
<!DOCTYPE svg PUBLIC "-//W3C//DTD SVG 1.1//EN" "http://www.w3.org/Graphics/SVG/1.1/DTD/svg11.dtd">
<svg version="1.1" id="矩形_6_拷贝_4_1_" xmlns="http://www.w3.org/2000/svg" xmlns:xlink="http://www.w3.org/1999/xlink"
	 x="0px" y="0px" width="512px" height="512px" viewBox="0 0 512 512" enable-background="new 0 0 512 512" xml:space="preserve">
<g id="矩形_6_拷贝_4">
	<g>
		<path fill="#36BC99" d="M138.24,235.519c-19.794,0-35.84,16.047-35.84,35.841c0,19.793,16.046,35.84,35.84,35.84
			c19.794,0,35.84-16.047,35.84-35.84C174.08,251.566,158.034,235.519,138.24,235.519z M486.4-0.001H25.6
			C11.461-0.001,0,11.461,0,25.6v460.8C0,500.538,11.461,512,25.6,512h460.8c14.139,0,25.6-11.461,25.6-25.6V25.6
			C512,11.461,500.538-0.001,486.4-0.001z M140.8,399.359c0,0-69.12-103.489-69.12-137.709c0-34.229,30.946-61.97,69.12-61.97
			c38.173,0,69.12,27.741,69.12,61.97C209.92,295.87,140.8,399.359,140.8,399.359z M476.16,261.011l-45.922,45.727l45.922,43.032
			v44.784l-69.042-64.794L260.096,476.159h-37.521l164.18-165.511L97.28,35.84l43.867,0l268.526,251.628l66.487-67.249V261.011z"/>
	</g>
</g>
</svg>
