<?xml version="1.0" encoding="utf-8"?>
<!-- Generator: Adobe Illustrator 17.0.0, SVG Export Plug-In . SVG Version: 6.00 Build 0)  -->
<!DOCTYPE svg PUBLIC "-//W3C//DTD SVG 1.1//EN" "http://www.w3.org/Graphics/SVG/1.1/DTD/svg11.dtd">
<svg version="1.1" id="多边形_3_1_" xmlns="http://www.w3.org/2000/svg" xmlns:xlink="http://www.w3.org/1999/xlink" x="0px"
	 y="0px" width="512px" height="512px" viewBox="0 0 512 512" enable-background="new 0 0 512 512" xml:space="preserve">
<g id="多边形_3">
	<g>
		<path fill-rule="evenodd" clip-rule="evenodd" fill="#E35352" d="M301.343,208.589h-75.245c-7.651,0-13.853,6.174-13.853,13.789
			v152.411c0,7.615,6.202,13.789,13.853,13.789h75.245c7.651,0,13.853-6.174,13.853-13.789V222.378
			C315.197,214.763,308.994,208.589,301.343,208.589z M301.343,100.595h-68.508V58.363c0-5.077-4.135-9.193-9.235-9.193h-27.857
			c-5.101,0-9.235,4.116-9.235,9.193v42.232h-73.655c-7.651,0-13.853,6.174-13.853,13.789v383.826
			c0,7.615,6.202,13.789,13.853,13.789h188.491c7.651,0,13.853-6.174,13.853-13.789v-78.777H195.213
			c-7.651,0-13.853-6.174-13.853-13.789V191.523c0-7.616,6.202-13.789,13.853-13.789h119.983v-63.349
			C315.197,106.769,308.994,100.595,301.343,100.595z M412.741,18.2c0-25.598-2.51-19.79-27.578-9.115
			c-32.868,14.522-86.614,38.267-112.267,49.602c-9.174,4.95-7.829,9.785,0.326,12.911c29.4,12.874,94.771,41.5,124.527,54.53
			c13.108,5.323,14.202,3.311,15.251-5.593C412.941,97.369,410.432,46.924,412.741,18.2z"/>
	</g>
</g>
</svg>
