<?xml version="1.0" encoding="utf-8"?>
<!-- Generator: Adobe Illustrator 17.0.0, SVG Export Plug-In . SVG Version: 6.00 Build 0)  -->
<!DOCTYPE svg PUBLIC "-//W3C//DTD SVG 1.1//EN" "http://www.w3.org/Graphics/SVG/1.1/DTD/svg11.dtd">
<svg version="1.1" id="圆角矩形_4_1_" xmlns="http://www.w3.org/2000/svg" xmlns:xlink="http://www.w3.org/1999/xlink" x="0px"
	 y="0px" width="512px" height="512px" viewBox="0 0 512 512" enable-background="new 0 0 512 512" xml:space="preserve">
<g id="圆角矩形_4">
	<g>
		<path fill-rule="evenodd" clip-rule="evenodd" fill="#2EB3E8" d="M456.533,0H28.093C24.176,0,21,3.175,21,7.091v497.817
			c0,3.917,3.176,7.091,7.093,7.091h456.813c3.918,0,7.093-3.175,7.093-7.091V35.457C492,15.875,476.121,0,456.533,0z
			 M102.863,452.916c0,1.567-1.27,2.837-2.837,2.837H69.978c-1.567,0-2.837-1.27-2.837-2.837V55.389c0-2.35,1.905-4.255,4.256-4.255
			h28.629c1.567,0,2.837,1.27,2.837,2.837V452.916z M297.514,202.029c0,1.567-1.27,2.837-2.837,2.837H136.461
			c-1.567,0-2.837-1.27-2.837-2.837v-30.286c0-1.567,1.27-2.837,2.837-2.837h156.797c2.351,0,4.256,1.905,4.256,4.255V202.029z
			 M358.87,114.937c0,1.567-1.27,2.837-2.837,2.837H136.461c-1.567,0-2.837-1.27-2.837-2.837V84.816c0-1.567,1.27-2.837,2.837-2.837
			h218.153c2.351,0,4.256,1.905,4.256,4.255V114.937z"/>
	</g>
</g>
</svg>
