<?xml version="1.0" encoding="utf-8"?>
<!-- Generator: Adobe Illustrator 17.0.0, SVG Export Plug-In . SVG Version: 6.00 Build 0)  -->
<!DOCTYPE svg PUBLIC "-//W3C//DTD SVG 1.1//EN" "http://www.w3.org/Graphics/SVG/1.1/DTD/svg11.dtd">
<svg version="1.1" id="椭圆_1_拷贝_4_1_" xmlns="http://www.w3.org/2000/svg" xmlns:xlink="http://www.w3.org/1999/xlink"
	 x="0px" y="0px" width="512px" height="512px" viewBox="0 0 512 512" enable-background="new 0 0 512 512" xml:space="preserve">
<g id="椭圆_1_拷贝_4">
	<g>
		<path fill="#E35352" d="M256,0C114.615,0,0,114.615,0,256s114.615,256,256,256s256-114.615,256-256S397.385,0,256,0z M256,440.32
			c-101.797,0-184.32-82.523-184.32-184.32S154.203,71.68,256,71.68S440.32,154.203,440.32,256S357.797,440.32,256,440.32z
			 M256,143.36c-62.209,0-112.64,50.431-112.64,112.64S193.791,368.64,256,368.64S368.64,318.209,368.64,256
			S318.209,143.36,256,143.36z M256,291.84c-19.794,0-35.84-16.046-35.84-35.84c0-19.794,16.046-35.84,35.84-35.84
			s35.84,16.046,35.84,35.84C291.84,275.794,275.794,291.84,256,291.84z"/>
	</g>
</g>
</svg>
