<?xml version="1.0" encoding="utf-8"?>
<!-- Generator: Adobe Illustrator 17.0.0, SVG Export Plug-In . SVG Version: 6.00 Build 0)  -->
<!DOCTYPE svg PUBLIC "-//W3C//DTD SVG 1.1//EN" "http://www.w3.org/Graphics/SVG/1.1/DTD/svg11.dtd">
<svg version="1.1" id="_x32__1_" xmlns="http://www.w3.org/2000/svg" xmlns:xlink="http://www.w3.org/1999/xlink" x="0px" y="0px"
	 width="512px" height="512px" viewBox="0 0 512 512" enable-background="new 0 0 512 512" xml:space="preserve">
<g id="_x32_">
	<g>
		<path fill-rule="evenodd" clip-rule="evenodd" fill="#F39943" d="M447.125,159.426c35.277,0,63.875-28.973,63.875-64.713
			c0-35.743-28.598-64.714-63.875-64.714S383.25,58.97,383.25,94.713C383.25,130.453,411.848,159.426,447.125,159.426z
			 M447.125,62.356c17.638,0,31.937,14.489,31.937,32.357c0,17.871-14.299,32.358-31.937,32.358
			c-17.639,0-31.938-14.487-31.938-32.358C415.187,76.845,429.486,62.356,447.125,62.356z M63.874,353.57
			C28.597,353.57,0,382.546,0,418.284c0,35.74,28.598,64.715,63.875,64.715c35.277,0,63.875-28.975,63.875-64.715
			C127.749,382.546,99.152,353.57,63.874,353.57z M63.874,450.642c-17.638,0-31.937-14.487-31.937-32.358
			c0-17.87,14.299-32.356,31.937-32.356c17.639,0,31.938,14.486,31.938,32.356C95.812,436.155,81.513,450.642,63.874,450.642z
			 M447.125,191.784c-35.277,0-63.875,28.972-63.875,64.714c0,35.74,28.598,64.713,63.875,64.713S511,292.239,511,256.498
			C511,220.756,482.402,191.784,447.125,191.784z M447.125,288.857c-17.639,0-31.938-14.487-31.938-32.359
			c0-17.869,14.299-32.356,31.938-32.356c17.638,0,31.937,14.487,31.937,32.356C479.062,274.37,464.763,288.857,447.125,288.857z
			 M447.125,353.57c-35.277,0-63.875,28.976-63.875,64.714c0,35.74,28.598,64.715,63.875,64.715S511,454.024,511,418.284
			C511,382.546,482.402,353.57,447.125,353.57z M447.125,450.642c-17.639,0-31.938-14.487-31.938-32.358
			c0-17.87,14.299-32.356,31.938-32.356c17.638,0,31.937,14.486,31.937,32.356C479.062,436.155,464.763,450.642,447.125,450.642z
			 M255.5,353.57c-35.277,0-63.875,28.976-63.875,64.714c0,35.74,28.598,64.715,63.875,64.715s63.875-28.975,63.875-64.715
			C319.375,382.546,290.777,353.57,255.5,353.57z M255.5,450.642c-17.639,0-31.938-14.487-31.938-32.358
			c0-17.87,14.299-32.356,31.938-32.356c17.638,0,31.937,14.486,31.937,32.356C287.438,436.155,273.138,450.642,255.5,450.642z
			 M63.874,191.784C28.597,191.784,0,220.756,0,256.498c0,35.74,28.598,64.713,63.875,64.713c35.277,0,63.875-28.973,63.875-64.713
			C127.749,220.756,99.152,191.784,63.874,191.784z M63.874,288.857c-17.638,0-31.937-14.487-31.937-32.359
			c0-17.869,14.299-32.356,31.937-32.356c17.639,0,31.938,14.487,31.938,32.356C95.812,274.37,81.513,288.857,63.874,288.857z
			 M255.5,29.999c-35.277,0-63.875,28.971-63.875,64.714c0,35.74,28.598,64.713,63.875,64.713s63.875-28.973,63.875-64.713
			C319.375,58.97,290.777,29.999,255.5,29.999z M255.5,127.071c-17.639,0-31.938-14.487-31.938-32.358
			c0-17.868,14.299-32.357,31.938-32.357c17.638,0,31.937,14.489,31.937,32.357C287.438,112.584,273.138,127.071,255.5,127.071z
			 M63.874,29.999C28.597,29.999,0,58.97,0,94.713c0,35.74,28.598,64.713,63.875,64.713c35.277,0,63.875-28.973,63.875-64.713
			C127.749,58.97,99.152,29.999,63.874,29.999z M63.874,127.071c-17.638,0-31.937-14.487-31.937-32.358
			c0-17.868,14.299-32.357,31.937-32.357c17.639,0,31.938,14.489,31.938,32.357C95.812,112.584,81.513,127.071,63.874,127.071z
			 M255.5,191.784c-35.277,0-63.875,28.972-63.875,64.714c0,35.74,28.598,64.713,63.875,64.713s63.875-28.973,63.875-64.713
			C319.375,220.756,290.777,191.784,255.5,191.784z M255.5,288.857c-17.639,0-31.938-14.487-31.938-32.359
			c0-17.869,14.299-32.356,31.938-32.356c17.638,0,31.937,14.487,31.937,32.356C287.438,274.37,273.138,288.857,255.5,288.857z"/>
	</g>
</g>
</svg>
