<?xml version="1.0" encoding="utf-8"?>
<!-- Generator: Adobe Illustrator 16.0.0, SVG Export Plug-In . SVG Version: 6.00 Build 0)  -->
<!DOCTYPE svg PUBLIC "-//W3C//DTD SVG 1.1//EN" "http://www.w3.org/Graphics/SVG/1.1/DTD/svg11.dtd">
<svg version="1.1" id="图形" xmlns="http://www.w3.org/2000/svg" xmlns:xlink="http://www.w3.org/1999/xlink" x="0px" y="0px"
	 width="1000.637px" height="1000.678px" viewBox="15.167 -16.333 1000.637 1000.678"
	 enable-background="new 15.167 -16.333 1000.637 1000.678" xml:space="preserve">
<path fill-rule="evenodd" clip-rule="evenodd" fill="#00A0E9" d="M195.306,921.089V46.923h399.548v238.747h240.81v635.42H195.306z
	 M301.657,102.775h-62.731v19.668h19.541v79.772h23.774v-79.772h19.417V102.775z M375.223,102.775h-20.415l-12.796,28.453
	l-12.101-28.453h-25.062l23.475,46.432l-26.479,53.008h20.72l15.407-34.332l15.4,34.332h24.918l-26.413-53.269L375.223,102.775z
	 M441.271,102.775H378.54v19.668h19.54v79.772h23.777v-79.772h19.415V102.775z M792.252,404.606H238.718v473.462h553.535V404.606z
	 M736.207,493.602H291.272v-19.193h444.934V493.602z M736.207,554.673H291.272v-19.196h444.934V554.673z M736.207,617.487H291.272
	v-19.193h444.934V617.487z M736.207,678.557H291.272v-19.194h444.934V678.557z M736.207,741.37H291.272v-19.193h444.934V741.37z
	 M736.207,802.441H291.272v-19.194h444.934V802.441z M622.729,46.923l212.935,211.084H622.729V46.923z"/>
</svg>
