<?xml version="1.0" encoding="utf-8"?>
<!-- Generator: Adobe Illustrator 16.0.0, SVG Export Plug-In . SVG Version: 6.00 Build 0)  -->
<!DOCTYPE svg PUBLIC "-//W3C//DTD SVG 1.1//EN" "http://www.w3.org/Graphics/SVG/1.1/DTD/svg11.dtd">
<svg version="1.1" id="图形" xmlns="http://www.w3.org/2000/svg" xmlns:xlink="http://www.w3.org/1999/xlink" x="0px" y="0px"
	 width="1000.637px" height="1000.678px" viewBox="15.167 -16.333 1000.637 1000.678"
	 enable-background="new 15.167 -16.333 1000.637 1000.678" xml:space="preserve">
<g>
	<g>
		<path fill-rule="evenodd" clip-rule="evenodd" fill="#43B133" d="M622.363,47.173v213.563h213.758L622.363,47.173z
			 M593.213,47.173H194.85v873.667h641.271V286.362H593.213V47.173z M426.332,166.633c-2.063-1.612-6.039-3.127-11.927-4.545
			c-10.982-2.64-18.812-6.244-23.48-10.811c-4.673-4.567-7.008-11.248-7.008-20.038c0-8.89,2.786-16.388,8.366-22.495
			c5.577-6.103,13.228-7.882,22.7-9.158c20.694,0.55,28.973,13.531,31.539,33.206h-20.63c0-8.286-2.667-14.887-10.149-14.887
			c-7.985,0-11.979,3.006-11.979,9.012c0,2.396,0.748,4.425,2.24,6.084c1.493,1.66,4.869,3.103,10.13,4.327
			c8.793,2.058,15.231,4.136,19.314,6.236c4.081,2.101,7.521,5.483,10.32,10.146c2.8,4.665,4.199,9.879,4.199,15.642
			c0,9.034-3.001,16.848-8.999,23.444c-6,6.592-14.892,9.888-26.682,9.888c-8.84,0-16.366-2.333-22.575-6.996
			c-8.175-8.24-8.798-22.707-8.798-22.707h20.63c0,0,0.79,11.398,12.13,11.018c4.621-0.21,8.073-1.037,10.344-3.115
			c2.271-2.074,3.406-4.555,3.406-7.437C429.423,170.517,428.393,168.243,426.332,166.633z M322.86,101.127h20.477v80.235h34.322
			v19.782H322.86V101.127z M239.808,101.127h23.539l13.974,30.373l14.685-30.373h18.845l-23.569,46.44l26.667,53.577h-23.395
			l-17.31-36.286l-17.316,36.286h-19.156l26.732-53.315L239.808,101.127z M792.013,406.346v472.169H237.208V406.346H792.013z
			 M586.251,562.635h-54.168v218.418h54.168V562.635z M673.619,501.48h-54.168v279.573h54.168V501.48z M498.886,602.823h-54.168
			v178.229h54.168V602.823z M411.518,655.244h-55.914v125.809h55.914V655.244z"/>
	</g>
</g>
</svg>
